<svg xmlns="http://www.w3.org/2000/svg"  viewBox="0 0 50 50" width="100px" height="100px"><path d="M 28.8125 0.03125 L 0.8125 5.34375 C 0.339844 5.433594 0 5.863281 0 6.34375 L 0 43.65625 C 0 44.136719 0.339844 44.566406 0.8125 44.65625 L 28.8125 49.96875 C 28.875 49.980469 28.9375 50 29 50 C 29.230469 50 29.445313 49.929688 29.625 49.78125 C 29.855469 49.589844 30 49.296875 30 49 L 30 1 C 30 0.703125 29.855469 0.410156 29.625 0.21875 C 29.394531 0.0273438 29.105469 -0.0234375 28.8125 0.03125 Z M 32 6 L 32 15.0625 C 32.328125 15.015625 32.660156 15 33 15 L 33 22 L 40 22 C 40 25.867188 36.867188 29 33 29 C 32.660156 29 32.328125 28.984375 32 28.9375 L 32 35 L 40 35 L 40 37 L 32 37 L 32 44 L 47 44 C 48.101563 44 49 43.101563 49 42 L 49 8 C 49 6.898438 48.101563 6 47 6 Z M 36 12 C 39.867188 12 43 15.132813 43 19 L 36 19 Z M 8.15625 15.65625 L 14.75 15.65625 C 19.464844 15.65625 21.84375 17.648438 21.84375 21.625 C 21.84375 23.503906 21.164063 25.027344 19.8125 26.1875 C 18.460938 27.347656 16.636719 27.9375 14.375 27.9375 L 12.375 27.9375 L 12.375 34.375 L 8.15625 34.375 Z M 12.375 18.90625 L 12.375 24.71875 L 14.03125 24.71875 C 16.273438 24.71875 17.40625 23.746094 17.40625 21.78125 C 17.40625 19.859375 16.273438 18.90625 14.03125 18.90625 Z"/></svg>